<?xml version="1.0" encoding="utf-8"?>
<!-- Generator: Adobe Illustrator 22.0.1, SVG Export Plug-In . SVG Version: 6.00 Build 0)  -->
<svg version="1.1" id="Layer_1" xmlns="http://www.w3.org/2000/svg" xmlns:xlink="http://www.w3.org/1999/xlink" x="0px" y="0px"
	 viewBox="0 0 50 42.7" style="enable-background:new 0 0 50 42.7;" xml:space="preserve">
<style type="text/css">
	.st0{fill:#FEE573;}
	.st1{fill:#E6E6E6;}
	.st2{fill:#E5E3E3;}
	.st3{fill:#999999;}
	.st4{fill:#CCCCCC;}
	.st5{fill:none;stroke:#CCCCCC;stroke-width:4;stroke-linecap:round;stroke-miterlimit:10;}
	.st6{fill:#4E60A0;}
	.st7{fill:#B3B3B3;}
	.st8{fill:#BCCECB;}
	.st9{fill:#FFFF00;}
	.st10{fill:none;}
	.st11{fill:#666666;}
	.st12{fill:#FFFFFF;}
</style>
<g>
	<path class="st3" d="M39.6,15.1c0-3.9-1.5-7.7-4.3-10.5C32.6,1.8,28.9,0.3,25,0.3c-3.9,0-7.6,1.5-10.3,4.3c-2,2-3.3,4.5-3.9,7.2
		C4.7,12.7,0.2,17.9,0.2,24c0,5.5,3.6,10.2,8.7,11.8l2.3-3.8c-3.8-0.7-6.7-4-6.7-8c0-4.2,3.3-7.7,7.4-8.1c1.5-0.1,2.7-1.2,3-2.7
		c0.4-2.1,1.4-4.1,2.9-5.6c2-2,4.6-3,7.3-3c2.8,0,5.4,1.1,7.3,3c2.1,2.1,3.2,5.1,3,8.2c-0.1,0.9,0.2,1.7,0.7,2.4
		c0.6,0.7,1.3,1.1,2.2,1.2c0.1,0,0.2,0,0.3,0h0.6c3.6,0,6.4,2.8,6.4,6.4s-2.8,6.4-6.4,6.4h-1l-2.6,4.3h3.6c5.9,0,10.6-4.8,10.6-10.6
		C49.8,20,45.3,15.3,39.6,15.1z M11.5,11.7C11.5,11.7,11.5,11.7,11.5,11.7C11.5,11.7,11.5,11.7,11.5,11.7z M38.6,15.1
		C38.6,15.1,38.6,15.1,38.6,15.1C38.6,15.1,38.6,15.1,38.6,15.1L38.6,15.1L38.6,15.1z M39.6,16.2C39.6,16.1,39.6,16.1,39.6,16.2
		C39.6,16.1,39.6,16.1,39.6,16.2z"/>
	<g>
		<line class="st3" x1="18.7" y1="28.3" x2="17.5" y2="30.3"/>
		<path class="st3" d="M17.5,32.5c-0.4,0-0.7-0.1-1.1-0.3c-1-0.6-1.4-1.9-0.8-2.9l1.1-2c0.6-1,1.9-1.4,2.9-0.8
			c1,0.6,1.4,1.9,0.8,2.9l-1.1,2C19,32.1,18.3,32.5,17.5,32.5z"/>
	</g>
	<g>
		<line class="st3" x1="30.4" y1="28.3" x2="29.2" y2="30.3"/>
		<path class="st3" d="M29.2,32.5c-0.4,0-0.7-0.1-1.1-0.3c-1-0.6-1.4-1.9-0.8-2.9l1.1-2c0.6-1,1.9-1.4,2.9-0.8
			c1,0.6,1.4,1.9,0.8,2.9l-1.1,2C30.7,32.1,30,32.5,29.2,32.5z"/>
	</g>
	<g>
		<line class="st3" x1="18.7" y1="38.3" x2="17.5" y2="40.2"/>
		<path class="st3" d="M17.5,42.4c-0.4,0-0.7-0.1-1.1-0.3c-1-0.6-1.4-1.9-0.8-2.9l1.1-2c0.6-1,1.9-1.4,2.9-0.8
			c1,0.6,1.4,1.9,0.8,2.9l-1.1,2C19,42,18.3,42.4,17.5,42.4z"/>
	</g>
	<g>
		<line class="st3" x1="30.4" y1="38.3" x2="29.2" y2="40.2"/>
		<path class="st3" d="M29.2,42.4c-0.4,0-0.7-0.1-1.1-0.3c-1-0.6-1.4-1.9-0.8-2.9l1.1-2c0.6-1,1.9-1.4,2.9-0.8
			c1,0.6,1.4,1.9,0.8,2.9l-1.1,2C30.7,42,30,42.4,29.2,42.4z"/>
	</g>
</g>
</svg>
